<?xml version="1.0" encoding="utf-8"?>
<!-- Generator: Adobe Illustrator 16.0.4, SVG Export Plug-In . SVG Version: 6.00 Build 0)  -->
<!DOCTYPE svg PUBLIC "-//W3C//DTD SVG 1.1//EN" "http://www.w3.org/Graphics/SVG/1.1/DTD/svg11.dtd">
<svg version="1.1" id="Layer_1" xmlns="http://www.w3.org/2000/svg" xmlns:xlink="http://www.w3.org/1999/xlink" x="0px" y="0px"
	 width="126.802px" height="156.5px" viewBox="0 0 126.802 156.5" enable-background="new 0 0 126.802 156.5" xml:space="preserve">
<g>
	<path fill-rule="evenodd" clip-rule="evenodd" fill="none" stroke="#E08300" stroke-miterlimit="10" d="M63.992,0.5
		c6.27,2.622,12.493,5.361,18.818,7.843c13.747,5.392,27.547,10.651,42.521,16.425c-10.599,3.577-20.062,6.771-30.051,10.142
		c0.451-5.262-2.953-6.806-6.616-8.253c-18.846-7.44-37.5-6.125-55.905,1.426c-1.811,0.743-2.874,3.309-4.69,5.525
		c-5.775-1.891-12.344-4.042-20.581-6.739c1.184,11.89,2.261,22.707,3.38,33.946c-2.404,0-5.416,0-7.943,0
		c0.812-10.112,1.72-20.248,2.357-30.399c0.116-1.846-0.873-3.76-1.516-6.29c11.182-4.314,23.106-8.82,34.954-13.52
		C46.865,7.375,54.905,3.877,62.992,0.5C63.325,0.5,63.658,0.5,63.992,0.5z"/>
	<path fill-rule="evenodd" clip-rule="evenodd" fill="none" stroke="#E08300" stroke-miterlimit="10" d="M62.148,120.852
		c-12.479,0.001-24.96,0.028-37.439-0.011c-6.06-0.02-7.408-1.366-7.415-7.28c-0.02-18.304-0.021-36.608-0.001-54.913
		c0.007-6.347,1.553-7.858,8.046-7.862c24.794-0.016,49.587-0.014,74.381,0.003c6.873,0.005,8.25,1.364,8.256,8.096
		c0.015,17.971,0.021,35.943-0.007,53.914c-0.01,6.474-1.528,8.023-7.882,8.042C87.442,120.876,74.795,120.851,62.148,120.852z
		 M61.989,112.318c10.992,0,21.986-0.099,32.976,0.06c3.26,0.048,4.35-1.004,4.319-4.289c-0.138-14.821-0.137-29.646-0.001-44.467
		c0.031-3.338-1.211-4.275-4.391-4.26c-21.65,0.097-43.302,0.097-64.954-0.004c-3.072-0.015-3.991,1.005-3.964,4.047
		c0.132,14.988,0.125,29.978,0.002,44.966c-0.025,3.066,0.991,4.048,4.036,4.006C40.67,112.231,51.331,112.321,61.989,112.318z"/>
	<path fill-rule="evenodd" clip-rule="evenodd" fill="none" stroke="#E08300" stroke-miterlimit="10" d="M91.104,47.009
		c-19.196,0-38.241,0-57.921,0c0-4.176-0.229-8.132,0.131-12.034c0.118-1.274,1.524-2.977,2.763-3.518
		c17.283-7.543,34.679-8.417,52.183-0.572c2.627,1.177,3.842,2.687,3.534,5.679c-0.305,2.963-0.094,5.977-0.14,8.969
		C91.648,45.838,91.436,46.14,91.104,47.009z"/>
	<path fill-rule="evenodd" clip-rule="evenodd" fill="none" stroke="#E08300" stroke-miterlimit="10" d="M62.482,133.356
		c12.32,0.003,24.646,0.214,36.958-0.101c4.989-0.127,6.543,1.712,6.147,6.399c-0.293,3.472-0.024,6.988-0.065,10.483
		c-0.033,2.79-1.315,4.244-4.3,4.239c-25.806-0.038-51.611-0.04-77.417,0.011c-3.098,0.007-4.076-1.473-4.001-4.324
		c0.101-3.825,0.175-7.665-0.021-11.484c-0.199-3.864,1.313-5.338,5.24-5.287C37.508,133.455,49.996,133.354,62.482,133.356z
		 M101.233,150.183c0-3.143-0.192-5.795,0.047-8.407c0.317-3.473-0.952-4.636-4.485-4.615c-22.804,0.127-45.609,0.118-68.414,0.007
		c-3.405-0.017-5.04,0.942-4.558,4.53c0.154,1.144,0.169,2.348,0,3.488c-0.617,4.157,1.053,5.369,5.231,5.333
		c22.305-0.193,44.61-0.086,66.917-0.098C97.441,150.42,98.911,150.291,101.233,150.183z"/>
	<path fill-rule="evenodd" clip-rule="evenodd" fill="none" stroke="#E08300" stroke-miterlimit="10" d="M62.458,129.675
		c-11.14,0.002-22.28,0.062-33.418-0.079c-1.325-0.017-2.637-1.138-3.955-1.747c1.323-0.678,2.644-1.937,3.97-1.943
		c22.446-0.115,44.892-0.101,67.337,0.003c1.235,0.006,2.467,1.028,3.7,1.579c-1.238,0.729-2.468,2.072-3.717,2.09
		C85.071,129.741,73.764,129.673,62.458,129.675z"/>
	<path fill-rule="evenodd" clip-rule="evenodd" fill="none" stroke="#E08300" stroke-miterlimit="10" d="M61.989,112.319
		c-10.659,0.002-21.319-0.088-31.976,0.058c-3.045,0.042-4.062-0.939-4.036-4.006c0.124-14.988,0.13-29.979-0.002-44.966
		c-0.027-3.042,0.892-4.062,3.964-4.047c21.651,0.101,43.303,0.101,64.954,0.004c3.18-0.015,4.422,0.922,4.391,4.26
		c-0.136,14.822-0.137,29.646,0.001,44.467c0.03,3.285-1.06,4.337-4.319,4.289C83.976,112.22,72.981,112.318,61.989,112.319z
		 M85.483,93.31c2.242,0.74,3.993,1.319,5.744,1.897c0.158-0.39,0.316-0.78,0.474-1.17c-1.45-1.179-2.901-2.357-4.414-3.587
		c0.944-1.293,1.729-2.368,2.711-3.712c-6.453-1.558-12.427-3-18.4-4.441c-0.145,0.329-0.289,0.658-0.434,0.987
		c4.023,4.765,8.047,9.53,12.449,14.743C84.384,96.082,84.905,94.768,85.483,93.31z"/>
	<path fill-rule="evenodd" clip-rule="evenodd" fill="none" stroke="#E08300" stroke-miterlimit="10" d="M101.233,150.183
		c-2.322,0.108-3.792,0.237-5.262,0.238c-22.307,0.012-44.612-0.096-66.917,0.098c-4.178,0.036-5.848-1.176-5.231-5.333
		c0.169-1.141,0.154-2.345,0-3.488c-0.482-3.588,1.152-4.547,4.558-4.53c22.805,0.111,45.61,0.12,68.414-0.007
		c3.533-0.021,4.803,1.143,4.485,4.615C101.041,144.388,101.233,147.04,101.233,150.183z"/>
	<path fill-rule="evenodd" clip-rule="evenodd" fill="none" stroke="#E08300" stroke-miterlimit="10" d="M85.483,93.31
		c-0.578,1.458-1.1,2.772-1.87,4.718c-4.402-5.213-8.426-9.979-12.449-14.743c0.145-0.329,0.289-0.658,0.434-0.987
		c5.974,1.441,11.947,2.884,18.4,4.441c-0.981,1.344-1.767,2.419-2.711,3.712c1.513,1.229,2.964,2.408,4.414,3.587
		c-0.157,0.39-0.315,0.78-0.474,1.17C89.477,94.629,87.726,94.05,85.483,93.31z"/>
</g>
</svg>
